<svg xmlns="http://www.w3.org/2000/svg" height="800" width="1200" viewBox="-39.687495 -10.0772 343.95829 60.4632"><path d="M246.5505 12.1788l5.8423-10.1205c.3297-.5674.1303-1.288-.4294-1.6177-.5597-.3297-1.288-.138-1.61.4293l-5.919 10.2508c-4.5159-2.0624-9.599-3.2125-15.0657-3.2125-5.4666 0-10.5498 1.1501-15.0657 3.2125L208.384.87a1.1803 1.1803 0 00-1.6177-.4293 1.1802 1.1802 0 00-.4293 1.6177l5.8422 10.1205c-10.0744 5.4589-16.898 15.656-18.0251 27.5936h70.4292c-1.127-11.9376-7.9507-22.1347-18.0328-27.5936zM213.199 29.8819c-1.633 0-2.9518-1.3264-2.9518-2.9518 0-1.633 1.3264-2.9518 2.9518-2.9518 1.633 0 2.9518 1.3264 2.9518 2.9518.008 1.6254-1.3187 2.9518-2.9518 2.9518zm32.3318 0c-1.633 0-2.9518-1.3264-2.9518-2.9518 0-1.633 1.3264-2.9518 2.9518-2.9518 1.6331 0 2.9518 1.3264 2.9518 2.9518.008 1.6254-1.3187 2.9518-2.9518 2.9518z" fill="#32de84"/><g transform="translate(283.9893 -349.6734) scale(.9073)"><path d="M-299.0361 399.581c-6.8857 0-13.966 5.5177-13.966 15.1757 0 8.8292 6.2253 15.0656 13.966 15.0656 6.3896 0 9.2373-4.2888 9.2373-4.2888v1.8695c0 .8836.8354 1.8694 1.8695 1.8694h4.6186V400.241h-6.4881v3.684s-2.8716-4.3438-9.2373-4.3438zm1.1557 5.9364c5.6684 0 8.6417 4.9851 8.6417 9.2371 0 4.736-3.5303 9.2339-8.6297 9.234-4.2627 0-8.5328-3.4525-8.5328-9.2965 0-5.2753 3.6747-9.1746 8.5208-9.1746zm23.5871 23.7551c-.9968 0-1.8695-.715-1.8695-1.8695v-27.162h6.4882v3.5926c1.4702-2.2099 4.3425-4.2613 8.7513-4.2613 7.2059 0 11.043 5.7442 11.043 11.1157v18.5846h-4.5088c-1.1822 0-1.9794-.9897-1.9794-1.9794v-15.1756c0-2.9774-1.8242-6.5934-6.0431-6.5934-4.5524 0-7.263 4.3023-7.263 8.3528v15.3956zm43.3274-29.6915c-6.8856 0-13.9659 5.5177-13.9659 15.1757 0 8.8292 6.2252 15.0656 13.966 15.0656 6.3895 0 9.2373-4.2888 9.2373-4.2888v1.8695c0 .8836.8354 1.8694 1.8694 1.8694h4.6187v-43.5473h-6.4881v18.1997s-2.8716-4.3437-9.2374-4.3437zm1.1558 5.9364c5.6684 0 8.6417 4.9851 8.6417 9.2371 0 4.736-3.5303 9.2339-8.6297 9.234-4.2628 0-8.5328-3.4525-8.5328-9.2965 0-5.2753 3.6746-9.1746 8.5208-9.1746zm23.5871 23.7551c-.9968 0-1.8695-.715-1.8695-1.8695v-27.162h6.4881v4.8386c1.1168-2.7106 3.5267-5.1685 7.8078-5.1685 1.1934 0 2.3093.22 2.3093.22v6.708s-1.3934-.5499-3.0791-.5499c-4.5523 0-7.038 4.3023-7.038 8.3528v14.6306zm54.1043 0c-.9968 0-1.8695-.715-1.8695-1.8695v-27.162h6.4882v29.0316zm23.6432-29.6915c-6.8857 0-13.966 5.5177-13.966 15.1757 0 8.8292 6.2252 15.0656 13.966 15.0656 6.3895 0 9.2373-4.2888 9.2373-4.2888v1.8695c0 .8836.8354 1.8694 1.8694 1.8694h4.6187v-43.5473h-6.4881v18.1997s-2.8716-4.3437-9.2373-4.3437zm1.1557 5.9364c5.6684 0 8.6417 4.9851 8.6417 9.2371 0 4.736-3.5303 9.2339-8.6297 9.234-4.2628 0-8.5328-3.4525-8.5328-9.2965 0-5.2753 3.6746-9.1746 8.5208-9.1746z"/><circle cx="-150.7952" cy="389.6879" r="4.2913"/><path d="M-174.3765 399.5714c-7.2111 0-15.1337 5.3828-15.1337 15.1337 0 8.8857 6.7482 15.1183 15.118 15.1183 10.315 0 15.3517-8.2922 15.3517-15.062 0-8.3072-6.4856-15.19-15.336-15.19zm.0236 6.059c4.9867 0 8.7064 4.0191 8.7064 9.093 0 5.1618-3.9486 9.145-8.6916 9.145-4.4028 0-8.6827-3.583-8.6827-9.0582 0-5.5665 4.0706-9.1798 8.6679-9.1798z"/></g></svg>